<?xml version="1.0" standalone="no"?><!-- Generator: Gravit.io --><svg xmlns="http://www.w3.org/2000/svg" xmlns:xlink="http://www.w3.org/1999/xlink" style="isolation:isolate" viewBox="0 0 1920 1920" width="1920" height="1920"><defs><clipPath id="_clipPath_dVQoyGBUFQUXF0jmPs08vXKN5dhPwxVU"><rect width="1920" height="1920"/></clipPath></defs><g clip-path="url(#_clipPath_dVQoyGBUFQUXF0jmPs08vXKN5dhPwxVU)"><g transform="matrix(1,0,0,1,510.625,1214.815)"><text transform="matrix(1,0,0,1,15.575,325.011)" style="font-family:&quot;Cantarell&quot;;font-weight:700;font-size:350px;font-style:normal;fill:#000000;stroke:none;">SDD</text></g><path d=" M 1297.722 622.457 C 1257.174 622.457 1224.305 655.328 1224.305 695.875 L 1209.621 695.875 L 1209.621 637.141 C 1209.621 596.594 1176.752 563.723 1136.203 563.723 C 1095.654 563.723 1062.785 596.594 1062.785 637.141 L 1062.785 695.875 L 1048.101 695.875 L 1048.101 314.102 C 1048.101 265.444 1008.658 226 960 226 C 911.342 226 871.898 265.444 871.898 314.102 L 871.898 695.875 L 846.987 695.875 L 718.983 369.989 C 701.19 324.699 650.055 302.41 604.769 320.203 C 559.481 337.994 537.193 389.129 554.984 434.417 L 692.211 783.78 L 635.147 829.432 C 606.916 852.019 599.328 891.796 617.268 923.188 L 734.737 1128.758 C 747.808 1151.633 772.134 1165.751 798.48 1165.75 L 1238.988 1165.75 C 1273.058 1165.75 1302.653 1142.311 1310.455 1109.148 L 1369.189 859.527 C 1370.486 854.016 1371.141 848.373 1371.14 842.711 L 1371.14 695.875 C 1371.14 655.328 1338.271 622.457 1297.722 622.457 Z " fill="none" vector-effect="non-scaling-stroke" stroke-width="40" stroke="rgb(33,133,208)" stroke-linejoin="miter" stroke-linecap="square" stroke-miterlimit="3"/><g transform="matrix(1,0,0,1,373.5,1608)"><text transform="matrix(1,0,0,1,0.148,136.623)" style="font-family:&quot;Cantarell&quot;;font-weight:400;font-size:100px;font-style:normal;fill:#2185d0;stroke:none;">Simple Direct Democracy</text></g></g></svg>